<svg xmlns="http://www.w3.org/2000/svg" xmlns:xlink="http://www.w3.org/1999/xlink" id="ezQTFIhfNAC1" viewBox="0 0 800 1300" shape-rendering="geometricPrecision" text-rendering="geometricPrecision" project-id="fa1d8c74f4e44faca51c8d505c580694" export-id="64ea69e62d234d16b449bd5b43073663" cached="false" style="background-color:transparent">
<style><![CDATA[
#ezQTFIhfNAC2 {animation: ezQTFIhfNAC2_c_o 3458ms linear infinite normal forwards}@keyframes ezQTFIhfNAC2_c_o { 0% {opacity: 0} 14.459225% {opacity: 1} 69.40428% {opacity: 1} 80.97166% {opacity: 0} 100% {opacity: 0}} #ezQTFIhfNAC3_to {animation: ezQTFIhfNAC3_to__to 3458ms linear infinite normal forwards}@keyframes ezQTFIhfNAC3_to__to { 0% {offset-distance: 0%;animation-timing-function: cubic-bezier(0.889,0,0.833,1)} 14.459225% {offset-distance: 42.009528%;animation-timing-function: cubic-bezier(0.167,0,0.833,1)} 20.242915% {offset-distance: 50.342009%;animation-timing-function: cubic-bezier(0.167,0,0.833,1)} 26.026605% {offset-distance: 52.557957%;animation-timing-function: cubic-bezier(0.167,0,0.833,1)} 31.810295% {offset-distance: 54.351317%;animation-timing-function: cubic-bezier(0.167,0,0.833,1)} 37.593985% {offset-distance: 54.966402%;animation-timing-function: cubic-bezier(0.167,0,0.833,1)} 43.377675% {offset-distance: 55.218178%} 66.281087% {offset-distance: 55.218178%;animation-timing-function: cubic-bezier(0.167,0,0.42,1)} 73.5107% {offset-distance: 61.749847%;animation-timing-function: cubic-bezier(0.769,0,0.833,1)} 80.740312% {offset-distance: 100%} 100% {offset-distance: 100%}} #ezQTFIhfNAC3_tr {animation: ezQTFIhfNAC3_tr__tr 3458ms linear infinite normal forwards}@keyframes ezQTFIhfNAC3_tr__tr { 0% {transform: rotate(-13deg);animation-timing-function: cubic-bezier(0.333,0,0.833,1)} 15.6738% {transform: rotate(-4deg);animation-timing-function: cubic-bezier(0.167,0,0.833,1)} 25.303644% {transform: rotate(8deg);animation-timing-function: cubic-bezier(0.167,0,0.833,1)} 31.318681% {transform: rotate(-3deg);animation-timing-function: cubic-bezier(0.167,0,0.833,1)} 38.548294% {transform: rotate(1deg);animation-timing-function: cubic-bezier(0.167,0,0.833,1)} 43.377675% {transform: rotate(0deg);animation-timing-function: cubic-bezier(0.167,0,0.833,1)} 66.281087% {transform: rotate(0deg);animation-timing-function: cubic-bezier(0.167,0,0.833,1)} 71.08155% {transform: rotate(-2deg);animation-timing-function: cubic-bezier(0.167,0,0.833,1)} 78.311163% {transform: rotate(0deg)} 100% {transform: rotate(0deg)}} #ezQTFIhfNAC6_to {animation: ezQTFIhfNAC6_to__to 3458ms linear infinite normal forwards}@keyframes ezQTFIhfNAC6_to__to { 0% {offset-distance: 0%;animation-timing-function: cubic-bezier(0.889,0,0.833,1)} 14.459225% {offset-distance: 42.009528%;animation-timing-function: cubic-bezier(0.167,0,0.833,1)} 20.242915% {offset-distance: 50.342009%;animation-timing-function: cubic-bezier(0.167,0,0.833,1)} 26.026605% {offset-distance: 52.557957%;animation-timing-function: cubic-bezier(0.167,0,0.833,1)} 31.810295% {offset-distance: 54.351317%;animation-timing-function: cubic-bezier(0.167,0,0.833,1)} 37.593985% {offset-distance: 54.966402%;animation-timing-function: cubic-bezier(0.167,0,0.833,1)} 43.377675% {offset-distance: 55.218178%} 66.281087% {offset-distance: 55.218178%;animation-timing-function: cubic-bezier(0.167,0,0.42,1)} 73.5107% {offset-distance: 61.749847%;animation-timing-function: cubic-bezier(0.769,0,0.833,1)} 80.740312% {offset-distance: 100%} 100% {offset-distance: 100%}} #ezQTFIhfNAC6_tr {animation: ezQTFIhfNAC6_tr__tr 3458ms linear infinite normal forwards}@keyframes ezQTFIhfNAC6_tr__tr { 0% {transform: rotate(-13deg);animation-timing-function: cubic-bezier(0.333,0,0.833,1)} 15.6738% {transform: rotate(-4deg);animation-timing-function: cubic-bezier(0.167,0,0.833,1)} 25.303644% {transform: rotate(8deg);animation-timing-function: cubic-bezier(0.167,0,0.833,1)} 31.318681% {transform: rotate(-3deg);animation-timing-function: cubic-bezier(0.167,0,0.833,1)} 38.548294% {transform: rotate(1deg);animation-timing-function: cubic-bezier(0.167,0,0.833,1)} 43.377675% {transform: rotate(0deg);animation-timing-function: cubic-bezier(0.167,0,0.833,1)} 66.281087% {transform: rotate(0deg);animation-timing-function: cubic-bezier(0.167,0,0.833,1)} 71.08155% {transform: rotate(-2deg);animation-timing-function: cubic-bezier(0.167,0,0.833,1)} 78.311163% {transform: rotate(0deg)} 100% {transform: rotate(0deg)}} #ezQTFIhfNAC15_tr {animation: ezQTFIhfNAC15_tr__tr 3458ms linear infinite normal forwards}@keyframes ezQTFIhfNAC15_tr__tr { 0% {transform: translate(135.33781px,207.03926px) rotate(720deg);animation-timing-function: cubic-bezier(0.415,0.08,0.115,0.955)} 100% {transform: translate(135.33781px,207.03926px) rotate(396.654545deg)}} #ezQTFIhfNAC16_tr {animation: ezQTFIhfNAC16_tr__tr 3458ms linear infinite normal forwards}@keyframes ezQTFIhfNAC16_tr__tr { 0% {transform: translate(11.12px,29.9px) rotate(-720deg);animation-timing-function: cubic-bezier(0.415,0.08,0.115,0.955)} 100% {transform: translate(11.12px,29.9px) rotate(-396.654545deg)}}
]]></style>
<defs><linearGradient id="ezQTFIhfNAC9-fill" x1="0.5" y1="0" x2="0.5" y2="1" spreadMethod="pad" gradientUnits="objectBoundingBox" gradientTransform="translate(0 0)"><stop id="ezQTFIhfNAC9-fill-0" offset="0%" stop-color="rgba(255,255,255,0)"/><stop id="ezQTFIhfNAC9-fill-1" offset="100%" stop-color="#010022"/></linearGradient></defs><g id="ezQTFIhfNAC2" opacity="0"><g id="ezQTFIhfNAC3_to" style="offset-path:path('M400,1044C400,926.667,400,445.5,400,340C400,234.5,400,405.167,400,411C400,416.833,400,376,400,375C400,374,400,401.5,400,405C400,408.5,400,396.833,400,396C400,395.167,400,399.333,400,400L400,400C400,394.833,400,267.333,400,369C400,470.667,400,903.167,400,1010');offset-rotate:0deg"><g id="ezQTFIhfNAC3_tr" transform="rotate(-13)"><g transform="scale(0.33,0.33) translate(0,0)"><g transform="matrix(.48485 0 0 0.48485 0 0)"><path d="M-100,-1049c-.663.032-1.336,0-2,0-55.566,0-106.731,1-158,1-91.637,0-183.911,4.64-273,6-12.785.195-26.189.46-39,1-154.216,6.5-305.325,12.061-457,22-52.425,3.435-100.659,6.02-144,16-10.552,2.43-20.882,5.811-31,9-10.335,3.257-20.562,6.105-30,10-3.249,1.341-7.486,4.014-10,5-12.475,4.895-24.095,12.084-35,17-.346.156-.593,1.761-1,2-2.081,1.223-5.016,1.754-7,3-1.727,1.085-3.222,2.865-5,4-30.211,19.292-57.54,44.037-79,71-35.767,44.938-60.313,100.218-75,164-5.077,22.048-8.425,44.355-12,68-5.187,34.302-10.378,71.098-15,105-1.603,11.753-2.559,23.883-4,36-2.098,17.639-5.279,36.444-7,52-.71,6.417-.331,12.623-1,19-17.788,169.612-26.177,350.94-21,537c1.497,53.815,2.453,103.223,6,153c14.161,198.75,24.14,403.107,95,543c17.9,35.338,40.06,68.059,66,94c27.101,27.102,57.305,49.161,93,67c35.135,17.559,76.091,28.478,123,37c44.916,8.16,91.43,14.649,140,19c48.906,4.381,99.747,8.728,151,9c25.415.135,50.92,1.998,77,2c79.36.005,158.151.276,237,3c52.061,1.798,103.923.521,156,3c13.247.63,26.52-.141,40,0c13.193.137,26.06,1,39,1c26.47,0,52.896-.045,79,1c80.555,3.225,157.692,3.147,235,5c13.169.315,26.587-1.309,40,0c.328.032,2.215,1.836,3,2c5.127,1.07,10.333,0,15,0c31.455,0,65.382.998,98,1c54.554.003,106.897-1,159-1c26.002,0,52.098-2,78-2c25.616,0,51.258-.868,77-2c77.694-3.417,153.883-6.051,229-11c97.729-6.439,201.142-11.344,300-19c52.133-4.038,100.84-5.995,144-16c38.488-8.922,72.472-22.028,101-39c2.799-1.665,5.763-2.992,8-4c.323-.146.63-1.753,1-2c.46-.307,1.489.23,2,0c.326-.147.626-1.754,1-2c1.963-1.291,4.125-1.782,6-3c4.676-3.037,8.895-7.149,13-9c1.115-.503,3.124-3.301,4-4c18.433-14.711,36.2-32.329,50-50c2.212-2.833,5.267-8.191,7-10c.709-.74.324-1.075,1-2c1.418-1.942,3.527-2.906,5-5c.311-.442-.226-1.5,0-2c.146-.324,1.753-.63,2-1c.307-.46-.23-1.489,0-2c.148-.328,1.754-.625,2-1c.305-.466-.231-1.486,0-2c.146-.324,1.753-.63,2-1c.307-.46-.23-1.489,0-2c.153-.339,1.758-.605,2-1c1.449-2.359,2.938-6.892,4-8c.818-.854.301-.824,1-2c14.375-24.189,26.514-49.653,37-78c29.154-78.81,42.636-168.613,56-263c21.6-152.556,32.215-313.721,34-485c.407-39.035,1.764-79.206,0-118-2.291-50.375-3.771-101.294-7-152-3.19-50.095-7.437-100.03-11-149-11.987-164.745-32.465-312.045-97-421-2.801-4.729-6.031-9.632-8-14-.146-.324-1.753-.63-2-1-.307-.46.23-1.489,0-2-.146-.325-1.753-.63-2-1-.307-.46.23-1.489,0-2-.146-.325-1.753-.63-2-1-.307-.46.23-1.489,0-2-.143-.318-1.752-.64-2-1-.309-.45.228-1.495,0-2-.139-.309-1.751-.654-2-1-2.387-3.322-3.745-6-6-9-7.646-10.17-17.619-21.141-25-30-6.93-8.318-14.752-14.5-23-22-49.802-45.289-112.572-73.976-191-89-43.399-8.313-89.872-16.051-138-21-36.752-3.779-74.366-5.664-113-7-39.41-1.363-76.825-1.771-116-3-25.683-.806-52.103-.909-78-2-26.034-1.097-51.835-1.02-78-2-25.9-.97-52.308-2-78-2-52.367,0-104.086-3-156-3-52.591,0-105.272-2-158-2-79.623,0-159.516-1-239-1-26.24,0-53.26-1.264-80,0-.612.029-1.142,1.007-1,1Z" fill="#f00" stroke-width="0"/></g></g></g></g><g id="ezQTFIhfNAC6_to" style="offset-path:path('M400,1044C400,926.667,400,445.5,400,340C400,234.5,400,405.167,400,411C400,416.833,400,376,400,375C400,374,400,401.5,400,405C400,408.5,400,396.833,400,396C400,395.167,400,399.333,400,400L400,400C400,394.833,400,267.333,400,369C400,470.667,400,903.167,400,1010');offset-rotate:0deg"><g id="ezQTFIhfNAC6_tr" transform="rotate(-13)"><g transform="scale(0.33,0.33) translate(0,0)"><g transform="matrix(3.030313 0 0 3.030313-20.63037-6.00911)"><path d="M-41.80271,72.588626l-.159529-145.085148L83.764949,-0.092104L-41.80271,72.588626Z" fill="#fff" stroke-width="0"/></g></g></g></g></g></svg>