
<svg version="1.2" xmlns="http://www.w3.org/2000/svg" viewBox="0 0 125 91" width="125" height="91"><style>.a{fill:#f00}.b{fill:#fff}</style><path class="a" d="m122.5 17.3c-1.4-5.2-5.5-9.3-10.7-10.7-9.5-2.6-47.5-2.6-47.5-2.6 0 0-38 0-47.5 2.5-5.1 1.4-9.3 5.6-10.7 10.8-2.5 9.5-2.5 29.2-2.5 29.2 0 0 0 19.8 2.5 29.2 1.4 5.2 5.5 9.3 10.7 10.7 9.6 2.6 47.5 2.6 47.5 2.6 0 0 38 0 47.5-2.5 5.2-1.4 9.3-5.5 10.7-10.7 2.5-9.5 2.5-29.2 2.5-29.2 0 0 0.1-19.8-2.5-29.3z"/><path class="b" d="m52.2 28.3v36.4l31.6-18.2z"/></svg>